<svg width="74" height="20" viewBox="0 0 74 20" fill="none" xmlns="http://www.w3.org/2000/svg">
<ellipse cx="68.1421" cy="14.1667" rx="4.10497" ry="4.16666" fill="#FA541C"/>
<path d="M48.712 18.3334H44.6882L37.9582 8.05326V18.3334H33.9343V1.66675H37.9582L44.6882 11.9944V1.66675H48.712V18.3334Z" fill="#212B36"/>
<path d="M54.8192 4.91936V8.29068H60.2059V11.4246H54.8192V15.0808H60.7532V18.3334H50.9013V1.66675H60.7532V4.91936H54.8192Z" fill="#212B36"/>
<path d="M23.5579 18.3334C22.0528 18.3334 20.6692 17.978 19.4073 17.2671C18.1607 16.5563 17.1648 15.5672 16.4199 14.3C15.6901 13.0174 15.3252 11.5802 15.3252 9.98849C15.3252 8.39677 15.6901 6.96732 16.4199 5.70013C17.1648 4.43294 18.1607 3.44391 19.4073 2.73304C20.6692 2.02218 22.0528 1.66675 23.5579 1.66675C25.063 1.66675 26.439 2.02218 27.6856 2.73304C28.9475 3.44391 29.9358 4.43294 30.6503 5.70013C31.3801 6.96732 31.745 8.39677 31.745 9.98849C31.745 11.5802 31.3801 13.0174 30.6503 14.3C29.9206 15.5672 28.9323 16.5563 27.6856 17.2671C26.439 17.978 25.063 18.3334 23.5579 18.3334ZM23.5579 14.7173C24.835 14.7173 25.8536 14.2846 26.6138 13.4192C27.3892 12.5538 27.7769 11.4102 27.7769 9.98849C27.7769 8.55131 27.3892 7.40775 26.6138 6.5578C25.8536 5.6924 24.835 5.2597 23.5579 5.2597C22.2656 5.2597 21.2318 5.68467 20.4564 6.53462C19.6962 7.38457 19.3161 8.53586 19.3161 9.98849C19.3161 11.4257 19.6962 12.577 20.4564 13.4424C21.2318 14.2923 22.2656 14.7173 23.5579 14.7173Z" fill="#212B36"/>
<path d="M6.13766 15.0096H13.1359V18.3334H1.64209V15.247L8.594 4.99058H1.64209V1.66675H13.1359V4.75317L6.13766 15.0096Z" fill="#212B36"/>
</svg>
