<svg width="36" height="36" viewBox="0 0 36 36" fill="none" xmlns="http://www.w3.org/2000/svg">
<rect x="-0.000244141" width="36" height="36" rx="18" fill="#212B36" fill-opacity="0.24"/>
<path d="M22.0314 11.75C22.4864 11.7496 22.9369 11.8401 23.3566 12.0161C23.7762 12.1921 24.1565 12.4501 24.4751 12.775C25.1316 13.4415 25.4996 14.3395 25.4996 15.275C25.4996 16.2105 25.1316 17.1085 24.4751 17.775L18.0001 24.3313L11.5251 17.775C10.8686 17.1085 10.5006 16.2105 10.5006 15.275C10.5006 14.3395 10.8686 13.4415 11.5251 12.775C11.8439 12.4503 12.2242 12.1925 12.6438 12.0164C13.0634 11.8404 13.5138 11.7497 13.9689 11.7497C14.4239 11.7497 14.8743 11.8404 15.2939 12.0164C15.7135 12.1925 16.0938 12.4503 16.4126 12.775L18.0001 14.4L19.5814 12.7875C19.899 12.4587 20.2797 12.1974 20.7007 12.0192C21.1216 11.8409 21.5742 11.7493 22.0314 11.75ZM22.0314 10.5C21.4099 10.4995 20.7945 10.623 20.2214 10.8634C19.6483 11.1038 19.129 11.4563 18.6939 11.9L18.0001 12.6L17.3064 11.9C16.8707 11.4571 16.3512 11.1053 15.7782 10.8651C15.2052 10.625 14.5901 10.5013 13.9689 10.5013C13.3476 10.5013 12.7325 10.625 12.1595 10.8651C11.5865 11.1053 11.067 11.4571 10.6314 11.9C9.74503 12.8023 9.24841 14.0165 9.24841 15.2813C9.24841 16.546 9.74503 17.7602 10.6314 18.6625L18.0001 26.125L25.3689 18.6625C26.2552 17.7602 26.7518 16.546 26.7518 15.2813C26.7518 14.0165 26.2552 12.8023 25.3689 11.9C24.9333 11.4568 24.4139 11.1048 23.8409 10.8644C23.2679 10.6241 22.6527 10.5002 22.0314 10.5Z" fill="white"/>
</svg>
